<?xml version="1.0" encoding="UTF-8" standalone="no"?>
<svg xmlns="http://www.w3.org/2000/svg" width="2048" height="1048" viewBox="0 0 2048 1048">
<path d="M 2035 229 L 1509 402 L 1862 144 L 1331 437 L 1663 141 L 1196 467 L 1386 290 L 1489 71 L 1133 484 L 901 556 L 1292 149 L 1044 293 L 746 619 L 864 303 L 839 33 L 729 626 L 633 667 L 713 397 L 690 142 L 610 678 L 489 734 L 607 197 L 463 748 L 12 987 L 382 806 L 564 946 L 790 1014 L 399 798 L 516 739 L 781 892 L 1055 942 L 537 729 L 639 692 L 929 785 L 1236 785 L 977 696 L 647 678 L 814 607 L 1321 677 L 1114 591 L 882 583 L 1026 534 L 1611 626 L 1380 535 L 1068 518 L 1378 441 L 1714 502 L 1428 431 L 1994 417 L 1713 365 Z" fill="none" stroke="#ffffff" stroke-width="6" stroke-linejoin="round" stroke-linecap="round"/>
</svg>