<svg id="Capa_1" data-name="Capa 1" xmlns="http://www.w3.org/2000/svg" viewBox="0 0 2095.54 2514.51"><defs><style>.cls-1{fill:#9e7b46;}</style></defs><path class="cls-1" d="M794.19,1436.35c23.25,6.12,49,9.85,76.57,11.1h15.36a319.77,319.77,0,0,0,53.2,22.33v509.05c0,19.1-22.08,39.31-43,39.31h-3.43v12.95h384.35c158.74,0,287.89-129.15,287.89-287.89a288.06,288.06,0,0,0-258.92-286.52c50.32-13.77,91.49-39.48,120-75.16,29.85-37.38,43.86-83.64,39.45-130.28-8-85.1-79-170.85-219.36-182.73-16.31-96.07-72.2-160.84-172.4-201.08,47.76-66.66,53-135.3,53-162V558.05l-1.8-1c-6.76-3.64-13.41-7.34-20-11-24-13.33-48.78-27.12-76.69-36.73-40-16.95-87.29-25.91-136.86-25.91H868.13c-153.11,8.65-273,106.14-273,222,0,72,29.56,124,90.36,158.92,53.92,31,124.47,45.51,199.16,60.92,27.61,5.69,56.08,11.56,83.51,18.33-31.55,18.29-69.94,33.51-111.6,44.2-199,49.14-256.67,173.47-245.53,265a189.48,189.48,0,0,0,26.74,75.61c-37.55-43.15-57.77-94-57.77-146.85C580,1088,643.23,975,721.82,975h4l-2.36-14.18H588.21l-1,1.41c-37.17,51.27-56.82,110.22-56.82,170.5C530.37,1273.6,638.88,1398.47,794.19,1436.35Zm-1.92-139.48c-15.7-74.88,12.19-143.26,40.82-179.06,19.73-24.37,42.2-37.79,63.27-37.79,20.88,0,43,20.2,43,39.3v312a378.71,378.71,0,0,1-48,3.16C836.76,1404.81,806.19,1361.53,792.27,1296.87Zm408.37-115.34c0,86.42-53.45,162.85-134.82,208.5V1123c0-20.88,22.09-43,43-43h71.33C1193.09,1107.69,1200.64,1141,1200.64,1181.53ZM939.32,1444.67v10.52q-11.79-4-22.55-8.53Q928.14,1446,939.32,1444.67Zm369.22-47.44c-23.31,38-56.49,58.07-96,58.07H1065.82V1408c110.61-53.76,185.63-157,185.63-275.29a405,405,0,0,0-2.57-46.49c63,22.74,92.12,104.57,92.12,181.45C1341,1317.09,1329.47,1363.11,1308.54,1397.23Zm-242.72,581.6V1498c114.69,21.74,232.75,45,296.34,163.76,36.16,67.5,31.51,154.63-12.13,227.38-45.8,77.12-128,124.12-225.45,129H1103C1083.5,2014.75,1065.82,1996.08,1065.82,1978.83Zm296.2-82.48c45.89-76.9,50.13-169.43,11.08-241.43-65.73-125.25-188.49-148.15-307.28-170.19v-15.25h211.46c89,0,161.39,122.79,161.39,273.72,0,151.6-72.4,274.94-161.39,274.94h-74.82C1270.37,1997.21,1326.39,1954.65,1362,1896.35ZM901.72,820.09c-127.45-27-237.52-50.37-237.52-162.32,0-82.08,88.39-150.42,205.34-158.95C1018,498.82,1114,579.9,1114,705.38c0,26-5.17,92.79-52.71,157C1010.6,843.18,955.26,831.44,901.72,820.09Zm84.36,128.29c73.86,19.92,148.58,50.35,187.37,118.68H896.36c-25.17,0-50.58,14.79-73.49,42.8-39.92,49.9-57,124.33-43.41,189.63,12.37,59.65,39.16,103,84,134.14-8.91-.6-17.6-1.5-26.39-2.75-25.67-4.06-46.42-9.06-65.32-15.73l-.43-.18h-.58a11.48,11.48,0,0,1-2.26-.87l-.73-.36h-1.41c-95.46-35.54-136.21-107.46-142.5-163-10.89-85.91,44.25-203,235.54-250.2C908,987.77,951.75,969.76,986.08,948.38Z"/><path class="cls-1" d="M191.47,1617.35c1.16,14.4,2.74,37.47,4.79,51.54,20.44,171,97.06,334.11,214.29,460.06a839.4,839.4,0,0,0,73.89,70.88c11.19,9.37,28.26,23.52,40,31.86,11.62,9.16,29.23,21.11,41.69,29.46,6.24,4.32,14.84,9.84,21.49,13.73l21.73,13.32,22.33,12.26A871.36,871.36,0,0,0,771.46,2361l24.14,7.86c14.38,3.65,34.72,10.17,49,13,65.57,15.7,133.57,23.15,201,23.61,67.4-.32,135.43-7.71,201-23.35,14.4-3.15,34.69-9,49.08-13l24.15-7.84a869.84,869.84,0,0,0,139.88-60.5l22.35-12.26,21.75-13.32c6.49-4.29,15.36-8.87,21.5-13.74,12.35-8.27,30.13-20.29,41.72-29.45,11.79-8.41,28.85-22.51,40-31.86a846.32,846.32,0,0,0,74-70.87c117.49-126,194.49-289,215.78-460.19,2.37-14.07,3.59-37.44,5.06-51.64,2.69-34.52,1.93-117.46,2.5-152.9-.16-161.9,3.18-383.24-.29-544.35-.21-9.38-1.86-29.13-2.75-38.9l-1.08-13-1.69-12.89c-1.82-14.63-4.89-37.22-7.91-51.38-2.33-15.08-7.36-35.7-10.92-50.82-1.78-7.61-4.2-17.52-6.66-25.11-4-14.38-10.49-35.88-15.58-49.56-94.22-272.49-326.22-484-607.93-547.93-234.1-54.34-486.9-5-683.14,133.46-12.2,8.71-29.38,20.87-40.84,30.48-11.43,8.54-28.35,23.28-39.08,32.69-11.13,9.27-26.43,25.09-37.12,34.9-6.66,7-19.65,20.43-26.42,27.62A915.94,915.94,0,0,0,323.46,522c-4.95,8.55-14.32,24.23-19.35,33-9.18,17.66-20.75,38.74-28.68,57a849.16,849.16,0,0,0-71.49,244.78l-1.84,12.7-1.22,12.77c-.73,11.06-3.12,26.75-3.22,38.38-5.18,170.6-7,373.64-7.7,543.92C190,1499.77,189.12,1583.5,191.47,1617.35Zm35.72-732.78.73-12.43,1.35-12.36L232,835c1.52-11.51,3.79-25.36,5.71-36.92,2.37-14.21,7-34.78,10.15-48.82,11.29-44.07,25.11-88.5,43.73-130a795.3,795.3,0,0,1,133.6-210.51C747.06,43.68,1310,45.18,1639,399.8A807.78,807.78,0,0,1,1786.91,625c18.47,40.77,32.59,84.28,44.17,127.51,3,13.9,8.2,33.89,10.49,48,1.72,11.4,4.74,24.85,6.1,36.3,1,8.94,3.42,27.52,4.45,36.55,1.29,18.85,3.45,42.35,3.36,61.24.93,194.69,0,436.29,1.86,631.13-.3,23.87-.53,49.79-2.68,73.76l-.84,12.27-1.44,12.21c-1.52,13.83-4,35.33-6.67,48.73-2.64,18.89-8.16,41.66-12.14,60.33-2.31,8-7.06,27.41-9.52,35.72-101.88,347.51-413.65,591.48-778.44,592.16-365.27-.05-676.56-244.68-779.66-591.78-2.51-9.6-7.08-25.74-9.67-35.74-4.08-18.66-9.76-41.46-12.42-60.39-2.68-13.27-5.33-35.47-6.91-48.81l-1.51-12.23-.9-12.3c-2.12-23.91-2.8-50-3.1-73.93.18-192.81-2.33-413.19-6.22-606.52C225.18,935.09,225.28,908.72,227.19,884.57Z"/></svg>